<svg width="20" height="20" viewBox="0 0 20 20" fill="none" xmlns="http://www.w3.org/2000/svg">
<rect x="2" y="19" width="16" height="1" fill="#707070"/>
<path fill-rule="evenodd" clip-rule="evenodd" d="M7.41132 6.11294C7.39741 5.48118 6.94586 5 6.21261 5C5.47937 5 5 5.48118 5 6.11294C5 6.73161 5.4652 7.22665 6.18479 7.22665H6.19849C6.94586 7.22665 7.41132 6.73161 7.41132 6.11294ZM7.27007 8.10591H5.12666V14.5492H7.27007V8.10591ZM12.5321 7.95527C13.9426 7.95527 15 8.87637 15 10.8555L14.9999 14.5498H12.8566V11.1027C12.8566 10.2368 12.5464 9.646 11.7705 9.646C11.1784 9.646 10.8257 10.0443 10.6707 10.429C10.6141 10.5669 10.6002 10.759 10.6002 10.9516V14.55H8.4565C8.4565 14.55 8.48475 8.71135 8.4565 8.10675H10.6002V9.01938C10.8846 8.58066 11.3941 7.95527 12.5321 7.95527Z" fill="#707070"/>
</svg>
