<svg width="52" height="14" viewBox="0 0 52 14" fill="none" xmlns="http://www.w3.org/2000/svg">
<g clip-path="url(#clip0)">
<path d="M37.6839 1.27654C37.6839 0.745205 38.1256 0.31421 38.6704 0.31421H50.0468C50.5917 0.31421 51.0333 0.745205 51.0333 1.27654V12.786C51.0333 13.3175 50.5917 13.7483 50.0468 13.7483H38.6704C38.1256 13.7483 37.6839 13.3175 37.6839 12.786V1.27654Z" fill="white"/>
<path fill-rule="evenodd" clip-rule="evenodd" d="M0.314623 11.5671H5.88571V9.73815H2.33073V2.76002H0.314623V11.5671Z" fill="white"/>
<path fill-rule="evenodd" clip-rule="evenodd" d="M8.70628 11.5671V5.50108H6.68999V11.5671H8.70628ZM7.69813 4.67284C8.40126 4.67284 8.8389 4.20702 8.8389 3.62452C8.82579 3.02946 8.40126 2.57674 7.71154 2.57674C7.02173 2.57674 6.57078 3.02946 6.57078 3.62452C6.57078 4.20702 7.00832 4.67284 7.68497 4.67284H7.69808H7.69813Z" fill="white"/>
<path fill-rule="evenodd" clip-rule="evenodd" d="M9.64246 11.5671H11.6588V8.17949C11.6588 7.99819 11.6719 7.81707 11.7252 7.68747C11.8709 7.3254 12.2026 6.95024 12.7596 6.95024C13.4893 6.95024 13.7812 7.50671 13.7812 8.32166V11.5671H15.7973V8.08884C15.7973 6.22557 14.8025 5.35855 13.4759 5.35855C12.3883 5.35855 11.9107 5.96654 11.6453 6.38066H11.6588V5.50108H9.64249C9.66897 6.0703 9.64249 11.5671 9.64249 11.5671H9.64246Z" fill="white"/>
<path fill-rule="evenodd" clip-rule="evenodd" d="M18.6417 2.76002H16.6253V11.5671H18.6417V9.60047L19.1456 8.96609L20.7242 11.5671H23.2046L20.5518 7.80163L22.8731 5.23972H20.4457C20.4457 5.23972 18.7876 7.53183 18.6417 7.80361V2.76002Z" fill="white"/>
<path fill-rule="evenodd" clip-rule="evenodd" d="M28.5967 9.03684C28.6232 8.88103 28.663 8.58215 28.663 8.24432C28.663 6.67615 27.867 5.08429 25.7713 5.08429C23.5295 5.08429 22.4949 6.85728 22.4949 8.4653C22.4949 10.4542 23.755 11.6964 25.957 11.6964C26.8325 11.6964 27.6415 11.5672 28.3048 11.2954L28.0394 9.96382C27.4956 10.1442 26.9385 10.2343 26.2488 10.2343C25.307 10.2343 24.4847 9.84785 24.4183 9.02392L28.5967 9.03648V9.03684ZM24.4051 7.67277C24.4581 7.15508 24.803 6.39146 25.6653 6.39146C26.5803 6.39146 26.7927 7.20696 26.7927 7.67277H24.4051Z" fill="white"/>
<path fill-rule="evenodd" clip-rule="evenodd" d="M33.6399 2.76V5.80874H33.6134C33.3215 5.38205 32.7112 5.09735 31.9023 5.09735C30.3502 5.09735 28.984 6.33954 28.9972 8.46148C28.9972 10.4285 30.2308 11.7095 31.7695 11.7095C32.6052 11.7095 33.401 11.347 33.799 10.6482H33.8388L33.9184 11.5671H35.7093C35.6827 11.1401 35.656 10.4025 35.656 9.678V2.76H33.6399ZM33.6399 8.75928C33.6399 8.91438 33.6266 9.06983 33.6 9.19908C33.4808 9.75555 33.0031 10.1436 32.4196 10.1436C31.5839 10.1436 31.04 9.47085 31.04 8.40979C31.04 7.41353 31.5044 6.61131 32.4328 6.61131C33.0561 6.61131 33.4939 7.03818 33.6134 7.56862C33.6399 7.6853 33.6399 7.81472 33.6399 7.93104V8.75928Z" fill="white"/>
<path fill-rule="evenodd" clip-rule="evenodd" d="M41.7306 11.5599V5.4937H39.7143V11.5599H41.7306ZM40.7224 4.66546C41.4255 4.66546 41.8632 4.19964 41.8632 3.6175C41.8501 3.02225 41.4255 2.56936 40.7357 2.56936C40.046 2.56936 39.5951 3.02225 39.5951 3.6175C39.5951 4.19964 40.0326 4.66546 40.7093 4.66546H40.7224H40.7224Z" fill="#E30E50"/>
<path fill-rule="evenodd" clip-rule="evenodd" d="M42.8462 11.5599H44.8625V8.17229C44.8625 7.99099 44.8756 7.80987 44.9289 7.68026C45.0746 7.31802 45.4064 6.94285 45.9634 6.94285C46.693 6.94285 46.9849 7.49914 46.9849 8.31464V11.5599H49.001V8.08164C49.001 6.21836 48.0063 5.35135 46.6797 5.35135C45.5919 5.35135 45.1144 5.95934 44.8491 6.37346H44.8626V5.4937H42.8463C42.8728 6.06291 42.8463 11.5599 42.8463 11.5599H42.8462Z" fill="#E30E50"/>
</g>
<defs>
<clipPath id="clip0">
<rect width="51.2711" height="14" fill="white"/>
</clipPath>
</defs>
</svg>
