<svg width="55" height="15" viewBox="0 0 55 15" fill="none" xmlns="http://www.w3.org/2000/svg">
<g clip-path="url(#clip0)">
<rect width="54.9333" height="15" fill="white"/>
<path d="M40.3757 1.36764C40.3757 0.798347 40.8489 0.336567 41.4327 0.336567H53.6217C54.2054 0.336567 54.6787 0.798347 54.6787 1.36764V13.6992C54.6787 14.2686 54.2054 14.7302 53.6217 14.7302H41.4327C40.8489 14.7302 40.3757 14.2686 40.3757 13.6992V1.36764Z" fill="#707070"/>
<path fill-rule="evenodd" clip-rule="evenodd" d="M0.337158 12.3933H6.30618V10.4337H2.49727V2.95711H0.337158V12.3933Z" fill="#707070"/>
<path fill-rule="evenodd" clip-rule="evenodd" d="M9.32832 12.3933V5.89396H7.16801V12.3933H9.32832ZM8.24816 5.00656C9.00151 5.00656 9.47041 4.50747 9.47041 3.88336C9.45637 3.24579 9.00151 2.76074 8.26253 2.76074C7.52345 2.76074 7.04028 3.24579 7.04028 3.88336C7.04028 4.50747 7.50908 5.00656 8.23406 5.00656H8.2481H8.24816Z" fill="#707070"/>
<path fill-rule="evenodd" clip-rule="evenodd" d="M10.3313 12.3933H12.4916V8.76369C12.4916 8.56944 12.5057 8.37538 12.5628 8.23652C12.7189 7.8486 13.0743 7.44663 13.6711 7.44663C14.4529 7.44663 14.7657 8.04285 14.7657 8.91602V12.3933H16.9258V8.66657C16.9258 6.6702 15.8599 5.74126 14.4386 5.74126C13.2732 5.74126 12.7615 6.39267 12.4772 6.83637H12.4917V5.89396H10.3313C10.3597 6.50384 10.3313 12.3933 10.3313 12.3933H10.3313Z" fill="#707070"/>
<path fill-rule="evenodd" clip-rule="evenodd" d="M19.9734 2.95711H17.813V12.3933H19.9734V10.2862L20.5133 9.60647L22.2046 12.3933H24.8622L22.0199 8.35884L24.507 5.61393H21.9062C21.9062 5.61393 20.1298 8.06977 19.9734 8.36096V2.95711Z" fill="#707070"/>
<path fill-rule="evenodd" clip-rule="evenodd" d="M30.6395 9.6822C30.6678 9.51526 30.7106 9.19503 30.7106 8.83307C30.7106 7.15289 29.8577 5.44733 27.6123 5.44733C25.2103 5.44733 24.1018 7.34695 24.1018 9.06983C24.1018 11.2008 25.452 12.5317 27.8112 12.5317C28.7492 12.5317 29.616 12.3933 30.3267 12.1021L30.0424 10.6754C29.4598 10.8687 28.8629 10.9652 28.1239 10.9652C27.1148 10.9652 26.2337 10.5511 26.1626 9.66835L30.6395 9.68182V9.6822ZM26.1485 8.2207C26.2053 7.66602 26.5748 6.84786 27.4986 6.84786C28.479 6.84786 28.7066 7.72161 28.7066 8.2207H26.1485Z" fill="#707070"/>
<path fill-rule="evenodd" clip-rule="evenodd" d="M36.0428 2.95693V6.22344H36.0144C35.7017 5.76627 35.0478 5.46124 34.1811 5.46124C32.5182 5.46124 31.0544 6.79215 31.0685 9.06567C31.0685 11.1732 32.3903 12.5457 34.0388 12.5457C34.9342 12.5457 35.7869 12.1573 36.2132 11.4086H36.256L36.3412 12.3931H38.26C38.2315 11.9356 38.2029 11.1453 38.2029 10.3691V2.95693H36.0428ZM36.0428 9.38474C36.0428 9.55091 36.0286 9.71747 36.0001 9.85594C35.8723 10.4522 35.3605 10.868 34.7354 10.868C33.8399 10.868 33.2572 10.1471 33.2572 9.01028C33.2572 7.94285 33.7548 7.08334 34.7495 7.08334C35.4173 7.08334 35.8864 7.5407 36.0144 8.10903C36.0428 8.23404 36.0428 8.37271 36.0428 8.49734V9.38474Z" fill="#707070"/>
<path fill-rule="evenodd" clip-rule="evenodd" d="M44.7114 12.3855V5.88596H42.551V12.3855H44.7114ZM43.6312 4.99855C44.3845 4.99855 44.8534 4.49946 44.8534 3.87574C44.8394 3.23798 44.3845 2.75274 43.6455 2.75274C42.9065 2.75274 42.4233 3.23798 42.4233 3.87574C42.4233 4.49946 42.8921 4.99855 43.6171 4.99855H43.6312H43.6312Z" fill="white"/>
<path fill-rule="evenodd" clip-rule="evenodd" d="M45.9067 12.3855H48.067V8.75588C48.067 8.56163 48.0811 8.36757 48.1381 8.22871C48.2943 7.84059 48.6498 7.43862 49.2465 7.43862C50.0283 7.43862 50.341 8.03465 50.341 8.9084V12.3855H52.5011V8.65875C52.5011 6.66239 51.4353 5.73344 50.014 5.73344C48.8486 5.73344 48.3369 6.38486 48.0527 6.82856H48.0671V5.88596H45.9068C45.9351 6.49583 45.9068 12.3855 45.9068 12.3855H45.9067Z" fill="white"/>
</g>
<defs>
<clipPath id="clip0">
<rect width="54.9333" height="15" fill="white"/>
</clipPath>
</defs>
</svg>
